<?xml version="1.0" encoding="UTF-8"?>
<svg width="40px" height="40px" viewBox="0 0 40 40" version="1.1" xmlns="http://www.w3.org/2000/svg" xmlns:xlink="http://www.w3.org/1999/xlink">
    <title>icon / 40 / 组件已选择</title>
    <g id="icon-/-40-/-组件已选择" stroke="none" stroke-width="1" fill="none" fill-rule="evenodd">
        <g id="编组" transform="translate(3.000000, 1.000000)">
            <circle id="椭圆形" fill="#06CE96" opacity="0.5" cx="21.5" cy="13.5" r="13.5"></circle>
            <g id="编组-7" transform="translate(0.000000, 1.000000)" fill="#1968FA" fill-rule="nonzero">
                <g id="组件">
                    <path d="M2.18746309,29.5313423 C2.18746309,31.343496 3.65650396,32.8125369 5.46865771,32.8125369 L21.719321,32.8125369 C23.5314747,32.8125369 25.0005156,31.343496 25.0005156,29.5313423 L25.0005156,24.9004829 C25.0004948,24.4693362 25.2537644,24.0784052 25.6472628,23.9022049 C26.0407611,23.7260046 26.5010577,23.7974155 26.8226724,24.0845592 C28.263667,25.372524 30.465226,25.2902684 31.8060943,23.8983664 C33.1469626,22.5064644 33.1469626,20.3033694 31.8060943,18.9114674 C30.465226,17.5195654 28.263667,17.4373098 26.8226724,18.7252746 C26.5013535,19.0121557 26.0415727,19.0837227 25.6482595,18.9080774 C25.2549464,18.7324322 25.0013556,18.3422887 25.0005156,17.9115384 L25.0005156,13.280679 C25.0005156,11.4685253 23.5314747,9.99948438 21.719321,9.99948438 L17.0884616,9.99948438 C16.6573149,9.99950518 16.2663839,9.74623556 16.0901836,9.35273725 C15.9139833,8.95923894 15.9853942,8.49894227 16.2725379,8.17732764 C17.5605027,6.73633297 17.4782471,4.53477403 16.0863451,3.1939057 C14.6944431,1.85303737 12.4913481,1.85303737 11.0994461,3.1939057 C9.7075441,4.53477403 9.62528851,6.73633297 10.9132533,8.17732764 C11.2001344,8.49864646 11.2717014,8.95842726 11.0960562,9.35174045 C10.9204109,9.74505364 10.5302674,9.99864439 10.0995171,9.99948438 L5.46865771,9.99948438 C3.65650396,9.99948438 2.18746309,11.4685253 2.18746309,13.280679 L2.18746309,15.9931332 C4.59201458,15.09226 7.30261876,15.8852855 8.84243107,17.9401379 C10.3822434,19.9949903 10.3822434,22.8192184 8.84243107,24.8740709 C7.30261876,26.9289233 4.59201458,27.7219487 2.18746309,26.8210755 L2.18746309,29.5313423 Z M27.1879787,29.5313423 C27.1879787,30.9817205 26.6118182,32.372695 25.5862459,33.3982672 C24.5606737,34.4238395 23.1696992,35 21.719321,35 L5.46865771,35 C2.44840146,35 0,32.5515985 0,29.5313423 L0,24.9004829 C0,24.4693362 0.253248824,24.0784052 0.646747132,23.9022049 C1.04024544,23.7260046 1.50054211,23.7974155 1.82215674,24.0845592 C3.26315141,25.372524 5.46471035,25.2902684 6.80557868,23.8983664 C8.14644701,22.5064644 8.14644701,20.3033694 6.80557868,18.9114674 C5.46471035,17.5195654 3.26315141,17.4373098 1.82215674,18.7252746 C1.50143005,19.0116392 1.04267476,19.0835223 0.649728509,18.9089843 C0.256782254,18.7344464 0.00255228896,18.3458711 0,17.9159133 L0,13.280679 C0,10.2604228 2.44840146,7.81202129 5.46865771,7.81202129 L8.18111195,7.81202129 C7.28023874,5.4074698 8.07326419,2.69686562 10.1281166,1.15705331 C12.182969,-0.382759006 15.0071971,-0.382759006 17.0620496,1.15705331 C19.116902,2.69686562 19.9099274,5.4074698 19.0090542,7.81202129 L21.719321,7.81202129 C23.1696992,7.81202129 24.5606737,8.38818179 25.5862459,9.41375405 C26.6118182,10.4393263 27.1879787,11.8303008 27.1879787,13.280679 L27.1879787,15.9931332 C29.5925302,15.09226 32.3031344,15.8852855 33.8429467,17.9401379 C35.382759,19.9949903 35.382759,22.8192184 33.8429467,24.8740709 C32.3031344,26.9289233 29.5925302,27.7219487 27.1879787,26.8210755 L27.1879787,29.5313423 Z" id="形状"></path>
                </g>
            </g>
        </g>
    </g>
</svg>