<svg width="40" height="40" viewBox="0 0 40 40" xmlns="http://www.w3.org/2000/svg"><g fill="none" fill-rule="evenodd"><path fill="none" d="M0 0h40v40H0z"/><path d="M5.187 31.531a3.281 3.281 0 0 0 3.282 3.282h16.25a3.281 3.281 0 0 0 3.282-3.282v-4.63a1.094 1.094 0 0 1 1.822-.816 3.594 3.594 0 1 0 0-5.36A1.094 1.094 0 0 1 28 19.912V15.28a3.281 3.281 0 0 0-3.282-3.282h-4.63a1.094 1.094 0 0 1-.816-1.822 3.594 3.594 0 1 0-5.36 0A1.094 1.094 0 0 1 13.1 12H8.469a3.281 3.281 0 0 0-3.282 3.282v2.712a5.781 5.781 0 1 1 0 10.828v2.71zm25.001 0A5.469 5.469 0 0 1 24.719 37H8.47A5.469 5.469 0 0 1 3 31.531v-4.63a1.094 1.094 0 0 1 1.822-.816 3.594 3.594 0 1 0 0-5.36A1.094 1.094 0 0 1 3 19.915v-4.634a5.469 5.469 0 0 1 5.469-5.469h2.712a5.781 5.781 0 1 1 10.828 0h2.71a5.469 5.469 0 0 1 5.469 5.469v2.712a5.781 5.781 0 1 1 0 10.828v2.71z" fill="#666" fill-rule="nonzero"/></g></svg>