<?xml version="1.0" encoding="UTF-8"?>
<svg width="40px" height="40px" viewBox="0 0 40 40" version="1.1" xmlns="http://www.w3.org/2000/svg" xmlns:xlink="http://www.w3.org/1999/xlink">
    <title>icon / 40 / 储存已选择-dark</title>
    <g id="icon-/-40-/-储存已选择-dark" stroke="none" stroke-width="1" fill="none" fill-rule="evenodd">
        <g id="编组-2" transform="translate(5.000000, 3.000000)">
            <rect id="矩形" fill="#1968FA" opacity="0.5" x="5" y="0" width="27" height="27" rx="6"></rect>
            <g id="储存" transform="translate(0.000000, 2.000000)" fill="#FFFFFF" fill-rule="nonzero">
                <path d="M24,0 C27.3137085,0 30,2.6862915 30,6 L30,24 C30,27.3137085 27.3137085,30 24,30 L6,30 C2.6862915,30 0,27.3137085 0,24 L0,6 C0,2.6862915 2.6862915,0 6,0 L24,0 Z M24,2 L24,7 C24,8.65685425 22.6568542,10 21,10 L9,10 C7.34314575,10 6,8.65685425 6,7 L6,2 C3.85780461,2 2.10892112,3.68396847 2.00489531,5.80035966 L2,6 L2,24 C2,26.1421954 3.68396847,27.8910789 5.80035966,27.9951047 L6,28 L24,28 C26.1421954,28 27.8910789,26.3160315 27.9951047,24.1996403 L28,24 L28,6 C28,3.85780461 26.3160315,2.10892112 24.1996403,2.00489531 L24,2 Z M22,2 L8,2 L8,7 C8,7.51283584 8.38604019,7.93550716 8.88337887,7.99327227 L9,8 L21,8 C21.5128358,8 21.9355072,7.61395981 21.9932723,7.11662113 L22,7 L22,2 Z M19,3 C19.5128358,3 19.9355072,3.38604019 19.9932723,3.88337887 L20,4 L20,6 C20,6.55228475 19.5522847,7 19,7 C18.4871642,7 18.0644928,6.61395981 18.0067277,6.11662113 L18,6 L18,4 C18,3.44771525 18.4477153,3 19,3 Z" id="形状结合"></path>
            </g>
        </g>
    </g>
</svg>