<?xml version="1.0" encoding="UTF-8"?>
<svg width="40px" height="40px" viewBox="0 0 40 40" version="1.1" xmlns="http://www.w3.org/2000/svg" xmlns:xlink="http://www.w3.org/1999/xlink">
    <title>icon / 40 / 消息已选择-dark</title>
    <g id="icon-/-40-/-消息已选择-dark" stroke="none" stroke-width="1" fill="none" fill-rule="evenodd">
        <g id="编组-8" transform="translate(4.000000, 3.000000)">
            <rect id="矩形备份-3" fill="#1968FA" opacity="0.5" x="5" y="0" width="29" height="23" rx="6"></rect>
            <g id="消息" transform="translate(0.000000, 2.000000)" fill="#FFFFFF" fill-rule="nonzero">
                <path d="M26,-1.24344979e-14 C29.3137085,-1.24344979e-14 32,2.6862915 32,6 L32,19 C32,22.1982083 29.4977078,24.8119749 26.3441268,24.9902965 L22.4948186,29.318329 C21.7609826,30.1438946 20.4968379,30.218256 19.6712723,29.48442 C19.6127026,29.432358 19.5572433,29.3768987 19.5051814,29.318329 L15.667,25 L6,25 C2.6862915,25 0,22.3137085 0,19 L0,6 C0,2.6862915 2.6862915,-1.24344979e-14 6,-1.24344979e-14 L26,-1.24344979e-14 Z M26,2 L6,2 C3.85780461,2 2.10892112,3.68396847 2.00489531,5.80035966 L2,6 L2,19 C2,21.1421954 3.68396847,22.8910789 5.80035966,22.9951047 L6,23 L16.5651839,23 L21.0000465,27.9895491 L25.4017806,23.0403874 L26.2312156,22.9934863 C28.2718725,22.8780958 29.8924296,21.2346678 29.9948582,19.2042858 L30,19 L30,6 C30,3.85780461 28.3160315,2.10892112 26.1996403,2.00489531 L26,2 Z M8.5,11 C9.32842712,11 10,11.6715729 10,12.5 C10,13.3284271 9.32842712,14 8.5,14 C7.67157288,14 7,13.3284271 7,12.5 C7,11.6715729 7.67157288,11 8.5,11 Z M15.5,11 C16.3284271,11 17,11.6715729 17,12.5 C17,13.3284271 16.3284271,14 15.5,14 C14.6715729,14 14,13.3284271 14,12.5 C14,11.6715729 14.6715729,11 15.5,11 Z M22.5,11 C23.3284271,11 24,11.6715729 24,12.5 C24,13.3284271 23.3284271,14 22.5,14 C21.6715729,14 21,13.3284271 21,12.5 C21,11.6715729 21.6715729,11 22.5,11 Z" id="形状结合"></path>
            </g>
        </g>
    </g>
</svg>