<svg width="40" height="40" viewBox="0 0 40 40" xmlns="http://www.w3.org/2000/svg"><g transform="translate(5 4)" fill="none" fill-rule="evenodd"><rect fill="#1968FA" opacity=".5" x="5" width="27" height="26" rx="6"/><path d="M21 1a1 1 0 0 1 .993.883L22 2v1h2a6 6 0 0 1 6 6v16a6 6 0 0 1-6 6H6a6 6 0 0 1-6-6V9a6 6 0 0 1 6-6h2V2a1 1 0 0 1 1.993-.117L10 2v1h10V2a1 1 0 0 1 1-1zM8 5H6a4 4 0 0 0-3.995 3.8L2 9v16a4 4 0 0 0 3.8 3.995L6 29h18a4 4 0 0 0 3.995-3.8L28 25V9a4 4 0 0 0-3.8-3.995L24 5h-2v1a1 1 0 0 1-1.993.117L20 6V5H10v1a1 1 0 0 1-1.993.117L8 6V5zm15 15a1 1 0 0 1 .117 1.993L23 22H7a1 1 0 0 1-.117-1.993L7 20h16zm0-7a1 1 0 0 1 .117 1.993L23 15H7a1 1 0 0 1-.117-1.993L7 13h16z" fill="#FFF" fill-rule="nonzero"/></g></svg>