<svg width="40" height="40" viewBox="0 0 40 40" xmlns="http://www.w3.org/2000/svg"><g transform="translate(4 2)" fill="none" fill-rule="evenodd"><circle fill="#1968FA" opacity=".5" cx="18.5" cy="13.5" r="13.5"/><path d="M16 2c8.837 0 16 7.163 16 16s-7.163 16-16 16S0 26.837 0 18 7.163 2 16 2zm0 2C8.268 4 2 10.268 2 18s6.268 14 14 14 14-6.268 14-14S23.732 4 16 4zm0 5.533a1 1 0 0 1 .993.884l.007.116v7.362h5.63a1 1 0 0 1 .993.884l.006.117a1 1 0 0 1-.883.993l-.117.007H15v-9.363a1 1 0 0 1 1-1z" fill="#FFF" fill-rule="nonzero"/></g></svg>