<svg width="40" height="40" viewBox="0 0 40 40" xmlns="http://www.w3.org/2000/svg"><g transform="translate(4 3)" fill="none" fill-rule="evenodd"><rect fill="#1968FA" opacity=".5" x="5" width="29" height="23" rx="6"/><path d="M26 2a6 6 0 0 1 6 6v13a6 6 0 0 1-5.656 5.99l-3.85 4.328a2 2 0 0 1-2.989 0L15.667 27H6a6 6 0 0 1-6-6V8a6 6 0 0 1 6-6h20zm0 2H6a4 4 0 0 0-3.995 3.8L2 8v13a4 4 0 0 0 3.8 3.995L6 25h10.565L21 29.99l4.402-4.95.83-.047a4 4 0 0 0 3.763-3.789L30 21V8a4 4 0 0 0-3.8-3.995L26 4zM8.5 13a1.5 1.5 0 1 1 0 3 1.5 1.5 0 0 1 0-3zm7 0a1.5 1.5 0 1 1 0 3 1.5 1.5 0 0 1 0-3zm7 0a1.5 1.5 0 1 1 0 3 1.5 1.5 0 0 1 0-3z" fill="#FFF" fill-rule="nonzero"/></g></svg>