<?xml version="1.0" encoding="UTF-8"?>
<svg width="40px" height="40px" viewBox="0 0 40 40" version="1.1" xmlns="http://www.w3.org/2000/svg" xmlns:xlink="http://www.w3.org/1999/xlink">
    <title>icon / 40 / 历史已选择-dark</title>
    <g id="icon-/-40-/-历史已选择-dark" stroke="none" stroke-width="1" fill="none" fill-rule="evenodd">
        <g id="编组-3" transform="translate(4.000000, 2.000000)">
            <circle id="椭圆形" fill="#1968FA" opacity="0.5" cx="18.5" cy="13.5" r="13.5"></circle>
            <g id="历史" transform="translate(0.000000, 2.000000)" fill="#FFFFFF" fill-rule="nonzero">
                <path d="M16,0 C24.836556,0 32,7.163444 32,16 C32,24.836556 24.836556,32 16,32 C7.163444,32 0,24.836556 0,16 C0,7.163444 7.163444,0 16,0 Z M16,2 C8.2680135,2 2,8.2680135 2,16 C2,23.7319865 8.2680135,30 16,30 C23.7319865,30 30,23.7319865 30,16 C30,8.2680135 23.7319865,2 16,2 Z M16,7.53333333 C16.5128358,7.53333333 16.9355072,7.91937352 16.9932723,8.41671221 L17,8.53333333 L17,15.895 L22.6294094,15.8956351 C23.1422452,15.8956351 23.5649165,16.2816753 23.6226816,16.779014 L23.6294094,16.8956351 C23.6294094,17.4084709 23.2433692,17.8311423 22.7460305,17.8889074 L22.6294094,17.8956351 L15,17.8956351 L15,8.53333333 C15,7.98104858 15.4477153,7.53333333 16,7.53333333 Z" id="形状结合"></path>
            </g>
        </g>
    </g>
</svg>