<?xml version="1.0" encoding="UTF-8"?>
<svg width="40px" height="40px" viewBox="0 0 40 40" version="1.1" xmlns="http://www.w3.org/2000/svg" xmlns:xlink="http://www.w3.org/1999/xlink">
    <title>icon / 40 / 性能分析已选择-dark</title>
    <g id="icon-/-40-/-性能分析已选择-dark" stroke="none" stroke-width="1" fill="none" fill-rule="evenodd">
        <g id="icon-/-40-/-事件未选择" fill="#D8D8D8" fill-opacity="0">
            <rect id="矩形备份-4" x="0" y="0" width="40" height="40"></rect>
        </g>
        <rect id="矩形" fill="#1968FA" opacity="0.5" x="10" y="3" width="27" height="27" rx="6"></rect>
        <path d="M29,5 C32.3137085,5 35,7.6862915 35,11 L35,29 C35,32.3137085 32.3137085,35 29,35 L11,35 C7.6862915,35 5,32.3137085 5,29 L5,11 C5,7.6862915 7.6862915,5 11,5 L29,5 Z M29,7 L11,7 C8.85780461,7 7.10892112,8.68396847 7.00489531,10.8003597 L7,11 L7,29 C7,31.1421954 8.68396847,32.8910789 10.8003597,32.9951047 L11,33 L29,33 C31.1421954,33 32.8910789,31.3160315 32.9951047,29.1996403 L33,29 L33,11 C33,8.85780461 31.3160315,7.10892112 29.1996403,7.00489531 L29,7 Z" id="矩形备份-2" fill="#FFFFFF" fill-rule="nonzero"></path>
        <path d="M27.6245526,15.2928932 C28.0150769,14.9023689 28.6482418,14.9023689 29.0387661,15.2928932 C29.3992501,15.6533772 29.4269796,16.2206082 29.1219547,16.6128994 L29.0387661,16.7071068 L22.5659604,23.1799125 C22.2054765,23.5403964 21.6382454,23.568126 21.2459542,23.2631011 L21.1517469,23.1799125 L17.352,19.38 L11.7071068,25.0259011 C11.3466228,25.386385 10.7793918,25.4141146 10.3871006,25.1090897 L10.2928932,25.0259011 C9.93240926,24.6654171 9.90467972,24.0981861 10.2097046,23.7058948 L10.2928932,23.6116875 L16.6453143,17.2592664 C17.0057983,16.8987824 17.5730294,16.8710529 17.9653206,17.1760778 L18.0595279,17.2592664 L21.858,21.058 L27.6245526,15.2928932 Z" id="路径-13" fill="#FFFFFF" fill-rule="nonzero"></path>
    </g>
</svg>