<svg width="40" height="40" viewBox="0 0 40 40" xmlns="http://www.w3.org/2000/svg"><g transform="translate(3 1)" fill="none" fill-rule="evenodd"><circle fill="#1968FA" opacity=".5" cx="21.5" cy="13.5" r="13.5"/><path d="M2.187 30.531a3.281 3.281 0 0 0 3.282 3.282h16.25a3.281 3.281 0 0 0 3.282-3.282v-4.63a1.094 1.094 0 0 1 1.822-.816 3.594 3.594 0 1 0 0-5.36A1.094 1.094 0 0 1 25 18.912V14.28a3.281 3.281 0 0 0-3.282-3.282h-4.63a1.094 1.094 0 0 1-.816-1.822 3.594 3.594 0 1 0-5.36 0A1.094 1.094 0 0 1 10.1 11H5.469a3.281 3.281 0 0 0-3.282 3.282v2.712a5.781 5.781 0 1 1 0 10.828v2.71zm25.001 0A5.469 5.469 0 0 1 21.719 36H5.47A5.469 5.469 0 0 1 0 30.531v-4.63a1.094 1.094 0 0 1 1.822-.816 3.594 3.594 0 1 0 0-5.36A1.094 1.094 0 0 1 0 18.915v-4.634a5.469 5.469 0 0 1 5.469-5.469H8.18a5.781 5.781 0 1 1 10.828 0h2.71a5.469 5.469 0 0 1 5.469 5.469v2.712a5.781 5.781 0 1 1 0 10.828v2.71z" fill="#FFF" fill-rule="nonzero"/></g></svg>