<svg width="40" height="40" viewBox="0 0 40 40" xmlns="http://www.w3.org/2000/svg"><g transform="translate(5 3)" fill="none" fill-rule="evenodd"><rect fill="#1968FA" opacity=".5" x="5" width="27" height="27" rx="6"/><path d="M24 2a6 6 0 0 1 6 6v18a6 6 0 0 1-6 6H6a6 6 0 0 1-6-6V8a6 6 0 0 1 6-6h18zm0 2v5a3 3 0 0 1-3 3H9a3 3 0 0 1-3-3V4a4 4 0 0 0-3.995 3.8L2 8v18a4 4 0 0 0 3.8 3.995L6 30h18a4 4 0 0 0 3.995-3.8L28 26V8a4 4 0 0 0-3.8-3.995L24 4zm-2 0H8v5a1 1 0 0 0 .883.993L9 10h12a1 1 0 0 0 .993-.883L22 9V4zm-3 1a1 1 0 0 1 .993.883L20 6v2a1 1 0 0 1-1.993.117L18 8V6a1 1 0 0 1 1-1z" fill="#FFF" fill-rule="nonzero"/></g></svg>