<svg width="30" height="30" viewBox="0 0 30 30" xmlns="http://www.w3.org/2000/svg"><path d="M15 3c6.627 0 12 5.373 12 12s-5.373 12-12 12S3 21.627 3 15 8.373 3 15 3zm0 2C9.477 5 5 9.477 5 15s4.477 10 10 10 10-4.477 10-10S20.523 5 15 5zm-.112 13.712c.336 0 .624.096.848.32.224.208.336.48.336.816 0 .336-.128.608-.352.832-.224.208-.512.32-.832.32-.32 0-.608-.112-.832-.336a1.11 1.11 0 0 1-.336-.816c0-.336.112-.608.336-.816.224-.224.512-.32.832-.32zm.288-9.36c1.024 0 1.856.272 2.496.848.64.56.96 1.328.96 2.288 0 .784-.208 1.44-.608 1.952-.144.176-.592.592-1.344 1.248a2.657 2.657 0 0 0-.672.832c-.176.32-.256.672-.256 1.056v.272H14.04v-.272c0-.592.096-1.104.32-1.52.208-.448.816-1.104 1.808-1.984l.272-.304c.288-.368.448-.752.448-1.168 0-.56-.16-.992-.464-1.312-.32-.32-.784-.48-1.36-.48-.72 0-1.248.224-1.568.688-.288.384-.432.928-.432 1.632h-1.68c0-1.168.336-2.08 1.008-2.752.672-.688 1.6-1.024 2.784-1.024z" fill="#8C8C8C" fill-rule="nonzero"/></svg>