<svg width="40" height="40" viewBox="0 0 40 40" xmlns="http://www.w3.org/2000/svg"><g transform="translate(4 3)" fill="none" fill-rule="evenodd"><rect fill="#06CE96" opacity=".5" x="5" width="29" height="23" rx="6"/><g transform="translate(0 2)"><path d="M26 1c1.38 0 2.63.56 3.536 1.464A4.984 4.984 0 0 1 31 6v13a4.983 4.983 0 0 1-1.364 3.432 4.985 4.985 0 0 1-3.748 1.567l-4.14 4.655a.997.997 0 0 1-1.376.114L16.115 24H6c-1.38 0-2.63-.56-3.536-1.464A4.984 4.984 0 0 1 1 19V6c0-1.38.56-2.63 1.464-3.536A4.984 4.984 0 0 1 6 1z" stroke="#1968FA" stroke-width="2"/><circle fill="#1968FA" cx="8.5" cy="12.5" r="1.5"/><circle fill="#1968FA" cx="15.5" cy="12.5" r="1.5"/><circle fill="#1968FA" cx="22.5" cy="12.5" r="1.5"/></g></g></svg>