<?xml version="1.0" encoding="UTF-8"?>
<svg width="48px" height="50px" viewBox="0 0 48 50" version="1.1" xmlns="http://www.w3.org/2000/svg" xmlns:xlink="http://www.w3.org/1999/xlink">
    <title>编组 13</title>
    <g id="页面-1" stroke="none" stroke-width="1" fill="none" fill-rule="evenodd">
        <g id="History-6-展开状态" transform="translate(-34.000000, -14.000000)" fill="#1968FA">
            <g id="编组-10" transform="translate(34.000000, 14.000000)">
                <g id="编组-13" transform="translate(0.000000, -0.000000)">
                    <path d="M0.25,-0.000271144884 C13.504834,-0.000271144884 24.25,11.4164677 24.25,25.4997289 C24.25,25.6667161 24.2484893,25.8333284 24.2454817,25.9995513 L12.0668911,25.9998444 C12.0730026,25.833945 12.076087,25.6672196 12.076087,25.4997289 C12.076087,18.5601509 6.78136748,12.9345115 0.25,12.9345115 L0.25,-0.000271144884 L0.25,-0.000271144884 Z" id="形状结合"></path>
                    <path d="M47.75,25.5002711 C47.75,25.6675937 47.7484832,25.8345399 47.7454635,26.0010949 L35.5668761,26.000793 C35.5729976,25.8347595 35.576087,25.6678987 35.576087,25.5002711 C35.576087,18.9189117 30.8138823,13.5193419 24.750997,12.9794307 L24.7507988,0.0220399999 C37.541507,0.57949546 47.75,11.7732126 47.75,25.5002711 Z" id="形状结合备份" transform="translate(36.000000, 13.000000) scale(-1, -1) translate(-36.000000, -13.000000) "></path>
                    <path d="M0.25,23.9997289 C13.504834,23.9997289 24.25,35.4164677 24.25,49.4997289 C24.25,49.6667161 24.2484893,49.8333284 24.2454817,49.9995513 L12.0668911,49.9998444 C12.0730026,49.833945 12.076087,49.6672196 12.076087,49.4997289 C12.076087,42.5601509 6.78136748,36.9345115 0.25,36.9345115 L0.25,23.9997289 L0.25,23.9997289 Z" id="形状结合备份-3"></path>
                    <path d="M47.75,49.5002711 C47.75,49.6675937 47.7484832,49.8345399 47.7454635,50.0010949 L35.5668761,50.000793 C35.5729976,49.8347595 35.576087,49.6678987 35.576087,49.5002711 C35.576087,42.9189117 30.8138823,37.5193419 24.750997,36.9794307 L24.7507988,24.02204 C37.541507,24.5794955 47.75,35.7732126 47.75,49.5002711 Z" id="形状结合备份-2" transform="translate(36.000000, 37.000000) scale(-1, -1) translate(-36.000000, -37.000000) "></path>
                </g>
            </g>
        </g>
    </g>
</svg>