<?xml version="1.0" encoding="UTF-8"?>
<svg width="30px" height="30px" viewBox="0 0 30 30" version="1.1" xmlns="http://www.w3.org/2000/svg" xmlns:xlink="http://www.w3.org/1999/xlink">
    <title>icon / 30 / 设置</title>
    <g id="控件" stroke="none" stroke-width="1" fill="none" fill-rule="evenodd">
        <g id="icon-/-30-/-设置">
            <rect id="矩形" stroke="#979797" fill="#D8D8D8" opacity="0" x="0.5" y="0.5" width="29" height="29"></rect>
            <path d="M10.5577789,6.5627081 C10.1975988,6.5627081 9.87343672,6.74916759 9.69334667,7.05216426 L5.25112556,14.5221976 C5.07103552,14.8251942 5.07103552,15.1981132 5.25112556,15.5011099 L9.69334667,22.9711432 C9.87343672,23.2741398 10.2096048,23.4605993 10.5577789,23.4605993 L19.4422211,23.4605993 C19.8024012,23.4605993 20.1265633,23.2741398 20.3066533,22.9711432 L24.7488744,15.5011099 C24.9289645,15.1981132 24.9289645,14.8251942 24.7488744,14.5221976 L20.3066533,7.05216426 C20.1265633,6.74916759 19.7903952,6.5627081 19.4422211,6.5627081 L10.5577789,6.5627081 Z M10.5577789,4.5 L19.4422211,4.5 C20.5587794,4.5 21.5912956,5.0826859 22.1435718,6.01498335 L26.5857929,13.4850166 C27.138069,14.4173141 27.138069,15.5826859 26.5857929,16.5149834 L22.1435718,23.9850166 C21.5912956,24.9173141 20.5587794,25.5 19.4422211,25.5 L10.5577789,25.5 C9.44122061,25.5 8.40870435,24.9173141 7.85642821,23.9850166 L3.4142071,16.5149834 C2.86193097,15.5826859 2.86193097,14.4173141 3.4142071,13.4850166 L7.85642821,6.01498335 C8.40870435,5.0826859 9.44122061,4.5 10.5577789,4.5 Z M15,17.7386238 C16.5607804,17.7386238 17.8214107,16.5149834 17.8214107,15 C17.8214107,13.4850166 16.5607804,12.2613762 15,12.2613762 C13.4392196,12.2613762 12.1785893,13.4850166 12.1785893,15 C12.1785893,16.5149834 13.4392196,17.7386238 15,17.7386238 Z M15,19.8013319 C12.2746373,19.8013319 10.0535268,17.6570477 10.0535268,15 C10.0535268,12.354606 12.2626313,10.1986681 15,10.1986681 C17.7253627,10.1986681 19.9464732,12.3429523 19.9464732,15 C19.9464732,17.645394 17.7253627,19.8013319 15,19.8013319 Z" id="形状" fill="#999999" fill-rule="nonzero" transform="translate(15.000000, 15.000000) rotate(-270.000000) translate(-15.000000, -15.000000) "></path>
        </g>
    </g>
</svg>