<svg width="30" height="30" viewBox="0 0 30 30" xmlns="http://www.w3.org/2000/svg"><path d="M23.437 10.558a1 1 0 0 0-.49-.865l-7.47-4.442a.954.954 0 0 0-.978 0l-7.47 4.442c-.303.18-.49.517-.49.865v8.884a1 1 0 0 0 .49.865l7.47 4.442c.303.18.676.18.979 0l7.47-4.442c.303-.18.49-.517.49-.865v-8.884zm2.063 0v8.884c0 1.117-.583 2.15-1.515 2.702l-7.47 4.442a2.978 2.978 0 0 1-3.03 0l-7.47-4.442C5.083 21.59 4.5 20.559 4.5 19.442v-8.884c0-1.117.583-2.15 1.515-2.702l7.47-4.442a2.978 2.978 0 0 1 3.03 0l7.47 4.442c.932.553 1.515 1.585 1.515 2.702zM12.261 15c0 1.56 1.224 2.821 2.739 2.821s2.739-1.26 2.739-2.821c0-1.56-1.224-2.821-2.739-2.821s-2.739 1.26-2.739 2.821zM10.2 15c0-2.725 2.144-4.946 4.801-4.946 2.645 0 4.801 2.209 4.801 4.946 0 2.725-2.144 4.946-4.801 4.946-2.645 0-4.801-2.22-4.801-4.946z" fill="#999" fill-rule="nonzero"/></svg>