<svg width="12" height="12" viewBox="0 0 12 12" xmlns="http://www.w3.org/2000/svg"><g fill="#999" fill-rule="nonzero"><path d="M5.987 11.96A5.98 5.98 0 0 1 .013 5.987 5.98 5.98 0 0 1 5.987.013a5.98 5.98 0 0 1 5.973 5.974 5.98 5.98 0 0 1-5.973 5.973zm0-11.09A5.122 5.122 0 0 0 .87 5.987a5.122 5.122 0 0 0 5.117 5.116 5.122 5.122 0 0 0 5.116-5.116A5.122 5.122 0 0 0 5.987.87z"/><path d="M5.344 3.2a.643.643 0 1 0 1.285 0 .643.643 0 0 0-1.285 0zM5.987 9.415a.428.428 0 0 1-.429-.428V5.129a.429.429 0 0 1 .857 0v3.858a.428.428 0 0 1-.428.428z"/></g></svg>