<?xml version="1.0" encoding="utf-8"?>
<!-- Generator: Adobe Illustrator 16.0.0, SVG Export Plug-In . SVG Version: 6.00 Build 0)  -->
<!DOCTYPE svg PUBLIC "-//W3C//DTD SVG 1.1//EN" "http://www.w3.org/Graphics/SVG/1.1/DTD/svg11.dtd">
<svg version="1.1" id="Layer_1" xmlns="http://www.w3.org/2000/svg" xmlns:xlink="http://www.w3.org/1999/xlink" x="0px" y="0px"
	 width="479px" height="307px" viewBox="0 0 479 307" enable-background="new 0 0 479 307" xml:space="preserve">
<g>
	<path fill="#A1E0FF" d="M120.59,27.57c79.99,15.56,159.92,31.49,239.91,47.05c0.04,20.12-0.08,40.25,0.06,60.37
		c-49.87-10.13-99.87-19.7-149.79-29.57c-30.08-5.96-60.18-11.86-90.27-17.75C120.56,67.63,120.38,47.6,120.59,27.57z"/>
	<path fill="#A1E0FF" d="M120.88,123.07c49.8,10.12,99.77,19.48,149.56,29.63c30.06,5.62,60.03,11.77,90.06,17.57
		c0.02,20.1-0.04,40.2,0.03,60.3c-49.56-10.04-99.24-19.54-148.84-29.39c-25.77-5.03-51.51-10.17-77.29-15.17
		c-4.62-0.85-9.18-2.06-13.86-2.49c-0.05-20-0.08-40,0.01-59.99L120.88,123.07z"/>
</g>
<path fill="#295892" d="M133.01,121.17c25.93-5.19,51.83-10.56,77.76-15.75c49.92,9.87,99.92,19.44,149.79,29.57
	c-28.02,6.01-56.17,11.42-84.22,17.26c-1.94,0.48-3.92,0.53-5.9,0.45c-49.79-10.15-99.76-19.51-149.56-29.63l-0.12-0.03
	C124.94,123.26,128.95,121.95,133.01,121.17z"/>
<path fill="#295892" d="M120.51,219.32c28.62-5.78,57.24-11.6,85.86-17.44c1.75-0.34,3.52-0.68,5.32-0.7
	c49.6,9.85,99.28,19.35,148.84,29.39c-33.43,7.16-67,13.66-100.49,20.58c-46.49,9.39-92.94,18.96-139.45,28.27
	C120.39,259.39,120.55,239.35,120.51,219.32z"/>
<g>
	<path fill="#52758A" d="M432.97,73.77l0.1,0.16l0.11,0.2C433.13,74.04,433.02,73.86,432.97,73.77z"/>
	<path fill="#52758A" d="M40.87,224.07c0.09,0.14,0.26,0.44,0.35,0.59C41.13,224.51,40.96,224.21,40.87,224.07z"/>
	<path fill="#52758A" d="M41.65,225.42c0.08,0.16,0.26,0.47,0.34,0.62C41.91,225.89,41.73,225.58,41.65,225.42z"/>
	<path fill="#52758A" d="M44.82,230.89c0.05,0.09,0.15,0.25,0.2,0.33C44.97,231.14,44.87,230.98,44.82,230.89z"/>
</g>
<path fill="#295892" d="M36.409,216.707"/>
</svg>
