<?xml version="1.0" encoding="UTF-8"?>
<svg width="40px" height="40px" viewBox="0 0 40 40" version="1.1" xmlns="http://www.w3.org/2000/svg" xmlns:xlink="http://www.w3.org/1999/xlink">
    <title>icon / 40 / 事件已选择-dark</title>
    <g id="icon-/-40-/-事件已选择-dark" stroke="none" stroke-width="1" fill="none" fill-rule="evenodd">
        <g id="编组-5" transform="translate(5.000000, 4.000000)">
            <rect id="矩形" fill="#1968FA" opacity="0.5" x="5" y="0" width="27" height="26" rx="6"></rect>
            <g id="事件" transform="translate(0.000000, 1.000000)" fill="#FFFFFF" fill-rule="nonzero">
                <path d="M21,0 C21.5128358,0 21.9355072,0.38604019 21.9932723,0.883378875 L22,1 L22,2 L24,2 C27.3137085,2 30,4.6862915 30,8 L30,24 C30,27.3137085 27.3137085,30 24,30 L6,30 C2.6862915,30 0,27.3137085 0,24 L0,8 C0,4.6862915 2.6862915,2 6,2 L8,2 L8,1 C8,0.44771525 8.44771525,0 9,0 C9.51283584,0 9.93550716,0.38604019 9.99327227,0.883378875 L10,1 L10,2 L20,2 L20,1 C20,0.44771525 20.4477153,0 21,0 Z M8,4 L6,4 C3.85780461,4 2.10892112,5.68396847 2.00489531,7.80035966 L2,8 L2,24 C2,26.1421954 3.68396847,27.8910789 5.80035966,27.9951047 L6,28 L24,28 C26.1421954,28 27.8910789,26.3160315 27.9951047,24.1996403 L28,24 L28,8 C28,5.85780461 26.3160315,4.10892112 24.1996403,4.00489531 L24,4 L22,4 L22,5 C22,5.55228475 21.5522847,6 21,6 C20.4871642,6 20.0644928,5.61395981 20.0067277,5.11662113 L20,5 L20,4 L10,4 L10,5 C10,5.55228475 9.55228475,6 9,6 C8.48716416,6 8.06449284,5.61395981 8.00672773,5.11662113 L8,5 L8,4 Z M23,19 C23.5522847,19 24,19.4477153 24,20 C24,20.5128358 23.6139598,20.9355072 23.1166211,20.9932723 L23,21 L7,21 C6.44771525,21 6,20.5522847 6,20 C6,19.4871642 6.38604019,19.0644928 6.88337887,19.0067277 L7,19 L23,19 Z M23,12 C23.5522847,12 24,12.4477153 24,13 C24,13.5128358 23.6139598,13.9355072 23.1166211,13.9932723 L23,14 L7,14 C6.44771525,14 6,13.5522847 6,13 C6,12.4871642 6.38604019,12.0644928 6.88337887,12.0067277 L7,12 L23,12 Z" id="形状结合"></path>
            </g>
        </g>
    </g>
</svg>