<?xml version="1.0" encoding="UTF-8"?>
<svg width="40px" height="40px" viewBox="0 0 40 40" version="1.1" xmlns="http://www.w3.org/2000/svg" xmlns:xlink="http://www.w3.org/1999/xlink">
    <title>icon / 40 / 消息未选择</title>
    <g id="icon-/-40-/-消息未选择" stroke="none" stroke-width="1" fill="none" fill-rule="evenodd">
        <g>
            <rect id="矩形备份-5" fill-opacity="0" fill="#D8D8D8" x="0" y="0" width="40" height="40"></rect>
            <g id="消息" transform="translate(4.000000, 5.000000)">
                <path d="M26,1 C27.3807119,1 28.6307119,1.55964406 29.5355339,2.46446609 C30.4403559,3.36928813 31,4.61928813 31,6 L31,6 L31,19 C31,20.3286954 30.4817684,21.5363734 29.636309,22.4318235 C28.7009706,23.4224672 27.3653247,24.0314649 25.8877441,23.9987121 L25.8877441,23.9987121 L21.7474093,28.6539652 C21.5639503,28.8603566 21.3142027,28.9728475 21.058722,28.9878757 C20.8181107,29.0020293 20.5724141,28.9297351 20.3722181,28.7680174 L20.3722181,28.7680174 L16.1147132,24 L6,24 C4.61928813,24 3.36928813,23.4403559 2.46446609,22.5355339 C1.55964406,21.6307119 1,20.3807119 1,19 L1,19 L1,6 C1,4.61928813 1.55964406,3.36928813 2.46446609,2.46446609 C3.36928813,1.55964406 4.61928813,1 6,1 L6,1 Z" id="形状结合" stroke="#666666" stroke-width="2"></path>
                <circle id="椭圆形" fill="#666666" cx="8.5" cy="12.5" r="1.5"></circle>
                <circle id="椭圆形备份" fill="#666666" cx="15.5" cy="12.5" r="1.5"></circle>
                <circle id="椭圆形备份-2" fill="#666666" cx="22.5" cy="12.5" r="1.5"></circle>
            </g>
        </g>
    </g>
</svg>